# xmcd
#
# Track frame offsets: 
#        150
#        674
#        22312
#        35951
#        54689
#        73879
#        92390
#        109126
#        127952
#        146027
#        162240
#        178040
#        194173
#        208100
#        228273
#        245637
#        270569
#        289693
#        303424
#        322002
#
# Disc length: 4437 seconds
#
# Revision: 0
# Processed by: cddbd v1.5.2PL0 Copyright (c) Steve Scherf et al.
# Submitted via: ExactAudioCopy v0.99pb4
#
DISCID=35115314
DTITLE=Various Artist - prevue promo 1053A-3
DYEAR=2000
DGENRE=pop
TTITLE0=blank - data
TTITLE1=J T Taylor - Now
TTITLE2=Nicol Smith - Soul Salvation
TTITLE3=Sister Seven - The Only Thing That's Real 
TTITLE4=Sister Hazel - Champagne High
TTITLE5=Gerald Levert - Dream With No Love(radio edit)
TTITLE6=Sunday - I Know
TTITLE7=Ja Rule Feat. Christina Milian - Between You And Me
TTITLE8=So Plush - Yes
TTITLE9=Shelby Lynne - Gotta Get Back 
TTITLE10=Jennifer Nettles Band - Listen
TTITLE11=Mephisto Odyssey Feat.Static-X - Crash
TTITLE12=Roni Size Reprazent - Who Told You
TTITLE13=Fatboy Slim - Ya Mama
TTITLE14=Fatboy Slim - Sunset (Bird Of Prey) 
TTITLE15=Eminem - Stan(radio edit)
TTITLE16=Finger Eleven - First time
TTITLE17=Marilyn  Manson - Disposable Teens
TTITLE18=Brougham - Main Chick 
TTITLE19=Samantha 7 - framed
EXTD=
EXTT0=
EXTT1=
EXTT2=
EXTT3=
EXTT4=
EXTT5=
EXTT6=
EXTT7=
EXTT8=
EXTT9=
EXTT10=
EXTT11=
EXTT12=
EXTT13=
EXTT14=
EXTT15=
EXTT16=
EXTT17=
EXTT18=
EXTT19=
PLAYORDER=
